<?xml version="1.0" encoding="UTF-8"?>
<svg xmlns="http://www.w3.org/2000/svg" width="1024" height="256" viewBox="0 0 1024 256">
  <defs>
    <linearGradient id="g" x1="0" x2="1" y1="0" y2="1">
      <stop offset="0%" stop-color="#0ea5e9"/>
      <stop offset="100%" stop-color="#2563eb"/>
    </linearGradient>
  </defs>
  <g transform="translate(16,16)">
    <rect x="0" y="0" width="224" height="224" rx="48" fill="url(#g)"/>
    <g fill="#ffffff">
      <path d="M52 76 h120 a16 16 0 0 1 0 32 h-120 a16 16 0 0 1 0 -32z"/>
      <path d="M52 116 h100 a16 16 0 0 1 0 32 h-100 a16 16 0 0 1 0 -32z"/>
      <path d="M52 156 h120 a16 16 0 0 1 0 32 h-120 a16 16 0 0 1 0 -32z"/>
    </g>
  </g>
  <g transform="translate(272,88)" fill="#0b1220">
    <text x="0" y="48" font-family="Inter, Segoe UI, Arial, sans-serif" font-size="72" font-weight="700" letter-spacing="0.5">Electivus</text>
  </g>
</svg>

