<?xml version="1.0" encoding="UTF-8"?>
<svg xmlns="http://www.w3.org/2000/svg" width="512" height="512" viewBox="0 0 512 512">
  <defs>
    <linearGradient id="g" x1="0" x2="1" y1="0" y2="1">
      <stop offset="0%" stop-color="#0ea5e9"/>
      <stop offset="100%" stop-color="#2563eb"/>
    </linearGradient>
  </defs>
  <rect x="32" y="32" width="448" height="448" rx="96" fill="url(#g)"/>
  <g fill="#ffffff">
    <path d="M156 168 h200 a20 20 0 0 1 0 40 h-200 a20 20 0 0 1 0 -40z"/>
    <path d="M156 246 h160 a20 20 0 0 1 0 40 h-160 a20 20 0 0 1 0 -40z"/>
    <path d="M156 324 h200 a20 20 0 0 1 0 40 h-200 a20 20 0 0 1 0 -40z"/>
  </g>
  <path d="M356 224 l54 -54 a22 22 0 0 1 0 31 l-39 39 z" fill="#ffffff" opacity="0.22"/>
</svg>

